HIERARCHY
ROOT root
{
	OFFSET	0	13.1	24.9
	CHANNELS 6  Xposition Yposition Zposition Xrotation Yrotation Zrotation
	JOINT spine_1
	{
		OFFSET	0	9.99999	0
		CHANNELS 3  Xrotation Yrotation Zrotation
		JOINT spine_2
		{
			OFFSET	0	112	-10
			CHANNELS 3  Xrotation Yrotation Zrotation
			JOINT spine_3
			{
				OFFSET	0	206.5	19.3
				CHANNELS 3  Xrotation Yrotation Zrotation
				JOINT spine_4
				{
					OFFSET	0	110.4	14.6
					CHANNELS 3  Xrotation Yrotation Zrotation
					JOINT neck_1
					{
						OFFSET	0	71.8	-50.3
						CHANNELS 3  Xrotation Yrotation Zrotation
						JOINT neck_2
						{
							OFFSET	0	86.2	-25.8
							CHANNELS 3  Xrotation Yrotation Zrotation
							JOINT head_ee
							{
								OFFSET	0	179.8	-8.7
								CHANNELS 3  Xrotation Yrotation Zrotation
								End Site
								{
									OFFSET	1	0	0
								}
							}
						}
					}
					JOINT left_clavicle
					{
						OFFSET	-43.2	22.4	-70.8
						CHANNELS 3  Xrotation Yrotation Zrotation
						JOINT left_shoulder
						{
							OFFSET	-93.9	-5.79999	48.7
							CHANNELS 3  Xrotation Yrotation Zrotation
							JOINT left_elbow
							{
								OFFSET	-291.4	-30.8	15.2
								CHANNELS 3  Xrotation Yrotation Zrotation
								JOINT left_lowarm_twist
								{
									OFFSET	-110.7	-3.89999	13.6
									CHANNELS 3  Xrotation Yrotation Zrotation
									JOINT left_hand
									{
										OFFSET	-110.7	-3.89999	13.6
										CHANNELS 3  Xrotation Yrotation Zrotation
										JOINT left_ee
										{
											OFFSET	-80.8	-5.10001	12.1
											CHANNELS 3  Xrotation Yrotation Zrotation
											End Site
											{
												OFFSET	1	0	0
											}
										}
									}
								}
							}
						}
					}
					JOINT right_clavicle
					{
						OFFSET	43.2	22.4	-70.8
						CHANNELS 3  Xrotation Yrotation Zrotation
						JOINT right_shoulder
						{
							OFFSET	93.9	-5.79999	48.7
							CHANNELS 3  Xrotation Yrotation Zrotation
							JOINT right_elbow
							{
								OFFSET	291.4	-30.8	15.2
								CHANNELS 3  Xrotation Yrotation Zrotation
								JOINT right_lowarm_twist
								{
									OFFSET	110.7	-3.89999	13.6
									CHANNELS 3  Xrotation Yrotation Zrotation
									JOINT right_hand
									{
										OFFSET	110.7	-3.89999	13.6
										CHANNELS 3  Xrotation Yrotation Zrotation
										JOINT right_ee
										{
											OFFSET	80.8	-5.10001	12.1
											CHANNELS 3  Xrotation Yrotation Zrotation
											End Site
											{
												OFFSET	1	0	0
											}
										}
									}
								}
							}
						}
					}
				}
			}
		}
	}
	JOINT left_hip
	{
		OFFSET	-82.8	-127.5	0.300001
		CHANNELS 3  Xrotation Yrotation Zrotation
		JOINT left_knee
		{
			OFFSET	-28.2	-396.7	2.2
			CHANNELS 3  Xrotation Yrotation Zrotation
			JOINT left_ankle
			{
				OFFSET	-11.7	-411.3	35.4
				CHANNELS 3  Xrotation Yrotation Zrotation
				JOINT left_toes
				{
					OFFSET	0	-60	-88.6
					CHANNELS 3  Xrotation Yrotation Zrotation
					JOINT left_foot_ee
					{
						OFFSET	-22.5	-16.5	-42.2
						CHANNELS 3  Xrotation Yrotation Zrotation
						End Site
						{
							OFFSET	1	0	0
						}
					}
				}
			}
		}
	}
	JOINT right_hip
	{
		OFFSET	82.8	-127.5	0.300001
		CHANNELS 3  Xrotation Yrotation Zrotation
		JOINT right_knee
		{
			OFFSET	28.2	-396.7	2.2
			CHANNELS 3  Xrotation Yrotation Zrotation
			JOINT right_ankle
			{
				OFFSET	11.7	-411.3	35.4
				CHANNELS 3  Xrotation Yrotation Zrotation
				JOINT right_toes
				{
					OFFSET	0	-60	-88.6
					CHANNELS 3  Xrotation Yrotation Zrotation
					JOINT right_foot_ee
					{
						OFFSET	22.5	-16.5	-42.2
						CHANNELS 3  Xrotation Yrotation Zrotation
						End Site
						{
							OFFSET	1	0	0
						}
					}
				}
			}
		}
	}
}
MOTION
Frames: 12
Frame Time: 0.02
1224.23 659.183 -1424.96 -33.6777 73.1885 42.6228 5.03028 -0.241447 -1.99047 5.03247 -0.114325 -2.00179 5.03457 0.133942 -2.00058 5.02903 -0.183628 -1.99663 -7.88163 -3.7865 -3.77631 -7.8464 -4.38461 -4.55942 -0.0 0.0 -0.0 4.8281 16.7887 9.52185 -5.66466 34.8752 60.3546 0.539902 -14.9736 0.0709533 -3.74266 -0.146811 0.455227 1.25315 -12.2036 3.25867 -0.0 0.0 -0.0 9.1643 -2.98466 -17.81 2.58935 3.68426 -48.2371 1.54637 37.4505 -0.524204 8.50812 -0.22116 1.06333 5.23995 27.1926 -22.5089 0.0 0.0 0.0 39.6463 -0.387874 -9.46628 -1.49041 0.0584922 0.22124 -18.2464 -5.44188 2.82699 -8.02496 0.0 0.0 -0.0 0.0 -0.0 -6.62322 -14.6738 -14.6862 -4.82732 -0.168438 -0.721484 36.4579 -10.6398 4.55671 -5.01261 0.0 0.0 0.0 0.0 0.0 
1205.76 658.459 -1430.11 -33.4364 72.9484 42.7084 5.01202 -0.247658 -2.07235 5.0144 -0.115316 -2.0839 5.01654 0.143766 -2.08214 5.01054 -0.1868 -2.07872 -7.74809 -3.3541 -3.01907 -7.72616 -4.1053 -3.71289 -0.0 0.0 -0.0 4.61145 17.1783 9.17583 -5.45798 35.1844 60.9715 0.498495 -13.8713 0.0606396 -3.65545 -0.143052 0.44473 1.24272 -11.7655 3.37888 -0.0 0.0 -0.0 9.1275 -2.9693 -17.7377 1.88941 3.6569 -49.1073 1.51681 36.9181 -0.506339 7.40623 -0.201459 0.923954 5.50168 26.5102 -24.7537 0.0 0.0 0.0 39.6932 0.432869 -9.88876 -3.5264 0.129045 0.525722 -16.3378 -7.82753 2.55759 -5.92106 0.0 0.0 -0.0 0.0 -0.0 -7.7218 -14.9839 -14.9132 -5.15997 -0.177795 -0.771677 36.9002 -10.0176 4.59437 -4.15237 0.0 0.0 0.0 0.0 0.0 
1188.88 656.591 -1433.44 -34.4035 72.7393 44.3606 5.07302 -0.28649 -2.37474 5.07614 -0.134842 -2.38814 5.07902 0.159493 -2.38663 5.07113 -0.219322 -2.38188 -7.97588 -3.13795 -2.092 -7.96714 -4.37539 -2.75377 -0.0 0.0 -0.0 4.51709 17.2674 9.02704 -4.67047 37.5675 61.5203 0.46814 -13.0565 0.0535717 -3.53541 -0.137905 0.430274 1.15315 -11.1378 3.04619 -0.0 0.0 -0.0 8.9896 -3.98743 -17.4114 1.49936 3.46886 -49.3575 1.57241 37.9133 -0.540125 5.15293 -0.152843 0.640238 5.80275 26.6834 -26.7354 0.0 0.0 0.0 38.8395 0.636836 -10.1701 -3.66151 0.133343 0.546012 -17.8404 -6.01555 2.77068 -8.04988 0.0 0.0 -0.0 0.0 -0.0 -8.19857 -14.8357 -15.3113 -5.67543 -0.19172 -0.849557 41.2731 -8.71122 4.97766 -2.87261 0.0 0.0 0.0 0.0 0.0 
1167.91 658.413 -1435.35 -34.4796 73.7275 44.7877 5.01004 -0.353638 -2.59567 5.01377 -0.187809 -2.6129 5.01912 0.137238 -2.61604 5.00968 -0.277496 -2.60491 -7.64745 -2.77141 -1.47569 -7.64359 -4.11219 -2.05413 -0.0 0.0 -0.0 4.60154 17.3184 9.15912 -7.02343 31.3178 63.2713 0.443485 -12.3907 0.0481416 -1.01415 -0.036835 0.124272 0.931556 -9.09184 2.42888 -0.0 0.0 -0.0 8.08221 -2.78257 -15.683 0.880984 2.94343 -50.8561 1.40937 34.9192 -0.443301 8.7304 -0.22481 1.09149 5.96449 27.1611 -27.5382 0.0 0.0 0.0 39.193 0.551528 -10.8392 -7.99558 0.245692 1.20149 -14.6344 -10.2657 2.31933 -2.59949 0.0 0.0 -0.0 0.0 -0.0 -9.87811 -15.7967 -15.2048 -5.81584 -0.195391 -0.870792 35.8452 -7.54929 4.48269 -4.00788 0.0 0.0 0.0 0.0 0.0 
1135.47 662.225 -1439.84 -32.5316 75.4999 43.5074 4.54057 -0.572847 -2.73375 4.54464 -0.397799 -2.76463 4.56084 -0.0302191 -2.79292 4.55026 -0.47076 -2.75316 -7.14669 -3.00127 -1.47531 -7.14226 -4.51637 -2.08634 -0.0 0.0 -0.0 4.98779 16.9153 9.77296 -5.39304 33.1905 63.0875 0.382825 -10.7383 0.0359798 -0.839523 -0.0303354 0.10292 1.07368 -9.16667 3.35754 -0.0 0.0 -0.0 7.43931 -5.05176 -14.371 -0.456521 1.86039 -52.0177 1.46721 36.0079 -0.476862 7.18932 -0.197265 0.896563 6.29883 27.4648 -29.687 0.0 0.0 0.0 38.4747 1.08759 -10.9234 -14.9524 0.321603 2.26558 -8.69528 -6.943 1.34354 -3.07831 0.0 0.0 -0.0 0.0 -0.0 -10.5765 -15.923 -15.0655 -8.81639 -0.261366 -1.32647 36.8033 -4.93036 4.5703 -2.88229 0.0 0.0 0.0 0.0 0.0 
1115.6 668.944 -1439.98 -28.8924 75.6113 40.0274 4.20932 -0.684788 -2.86676 4.21375 -0.50106 -2.90448 4.23631 -0.0975954 -2.94573 4.22465 -0.561397 -2.89343 -7.2902 -3.15393 -1.50859 -7.28592 -4.78356 -2.15564 -0.0 0.0 -0.0 5.5434 15.0537 10.7088 -1.36778 35.8328 62.7511 0.246801 -6.97044 0.0150312 -1.10063 -0.0400777 0.134838 1.1148 -10.2099 3.18754 -0.0 0.0 -0.0 7.54288 -5.31559 -14.5596 -1.18334 1.8851 -52.1005 1.34936 33.7583 -0.409447 7.61638 -0.205423 0.950506 6.22724 27.4768 -29.1685 0.0 0.0 0.0 38.6826 0.814316 -11.7602 -20.5894 0.288166 3.12949 -8.9783 -10.0111 1.41102 -1.24926 0.0 0.0 -0.0 0.0 -0.0 -9.88028 -14.5445 -14.0963 -10.1486 -0.282989 -1.52975 37.8764 -7.23613 4.67202 -2.87376 0.0 0.0 0.0 0.0 0.0 
1092.43 670.956 -1446.13 -25.4422 77.4039 36.6964 3.79526 -0.682184 -2.96687 3.80002 -0.492099 -3.00422 3.82336 -0.0530555 -3.04376 3.81083 -0.532876 -2.99726 -6.72508 -3.11056 0.532031 -6.72199 -6.15621 -0.0833883 -0.0 0.0 -0.0 6.41114 9.89862 12.3343 5.1766 36.9922 61.5129 0.198564 -5.61785 0.00974242 0.00722087 0.000254423 -0.000887094 1.12808 -2.42487 6.56398 -0.0 0.0 -0.0 7.02197 -7.18232 -13.5232 -2.06983 1.76138 -53.4069 1.2992 32.7633 -0.381938 4.96058 -0.148176 0.61611 5.96994 25.517 -28.7311 0.0 0.0 0.0 35.4394 1.06373 -11.5438 -21.4218 0.276033 3.25663 -5.09226 -9.04519 0.790411 -2.46936 0.0 0.0 -0.0 0.0 -0.0 -9.25581 -13.1588 -13.1679 -16.4591 -0.320992 -2.49675 38.3116 -9.08045 4.7195 0.256149 -0.0 -0.0 0.0 0.0 0.0 
1079.72 673.279 -1447.98 -21.2604 77.4295 32.0576 3.4744 -0.861031 -2.76529 3.47839 -0.683395 -2.81442 3.51033 -0.254237 -2.88497 3.49941 -0.706493 -2.80871 -7.17838 -2.67768 0.993529 -7.17455 -5.69262 0.442889 -0.0 0.0 -0.0 7.41629 7.75838 14.2311 11.7295 40.5779 57.1336 0.16277 -4.60998 0.00655164 -0.876167 -0.0316941 0.107402 1.2803 0.410631 8.7495 -0.0 0.0 -0.0 7.68699 -6.70023 -14.7792 -2.0949 2.38094 -52.9351 1.09613 28.5007 -0.278396 2.78111 -0.0896529 0.343872 5.83914 24.5092 -28.485 0.0 0.0 0.0 36.6039 1.6859 -12.3037 -27.0005 0.147216 4.10272 -13.954 -12.7581 2.24586 -5.35398 0.0 0.0 -0.0 0.0 -0.0 -6.94727 -9.88364 -11.885 -21.278 -0.27826 -3.23469 41.1124 -12.5663 4.99788 1.32535 -0.0 -0.0 0.0 0.0 0.0 
1053.43 680.746 -1453.71 -20.2841 78.5941 31.1913 3.35884 -0.933202 -2.66458 3.36247 -0.761821 -2.71851 3.39729 -0.340699 -2.80255 3.38718 -0.77887 -2.71368 -6.83489 -3.45253 1.15454 -6.82761 -7.24404 0.466055 -0.0 0.0 -0.0 8.22766 1.43409 16.01 15.1537 41.8778 57.747 0.198757 -5.62326 0.00976123 1.91494 0.0635238 -0.23632 1.00097 4.51711 8.51008 -0.0 0.0 -0.0 7.50347 -11.0889 -14.223 -4.43015 2.47747 -53.7555 1.11718 28.96 -0.288513 2.71107 -0.0876005 0.335161 5.49675 23.9568 -26.3989 0.0 0.0 0.0 34.3074 2.25083 -12.3613 -27.6937 0.125471 4.20687 -3.69078 -12.6589 0.584044 -1.03205 0.0 0.0 -0.0 0.0 -0.0 -4.29639 -7.41727 -11.4744 -26.5389 -0.160998 -4.03321 40.5342 -15.1591 4.98276 4.22619 -0.0 -0.0 0.0 0.0 0.0 
1038.02 682.324 -1456.99 -15.2047 78.5162 25.7314 3.17264 -0.760275 -2.58637 3.17617 -0.594216 -2.62946 3.20232 -0.179183 -2.68976 3.19273 -0.601585 -2.62779 -7.7014 -3.02815 2.36815 -7.68528 -7.328 1.70933 -0.0 0.0 -0.0 10.2194 -8.00479 20.3239 20.6838 39.2026 55.9842 0.199676 -5.64911 0.00985163 8.96057 0.228473 -1.12066 0.985299 8.78816 10.0577 -0.0 0.0 -0.0 7.55669 -14.0548 -14.1215 -8.03596 4.64887 -53.8287 1.15123 29.6945 -0.305193 3.18213 -0.101198 0.393796 4.81713 23.4852 -21.9192 0.0 0.0 0.0 32.97 3.2854 -13.4311 -29.1634 0.0751989 4.42683 -1.36807 -20.2898 0.229099 0.553801 -0.0 -0.0 -0.0 0.0 -0.0 0.809147 -3.9694 -10.231 -37.1854 0.297483 -5.60021 36.9062 -17.7015 4.68754 6.87532 -0.0 -0.0 0.0 0.0 0.0 
1023.18 684.523 -1462.42 -9.52185 77.974 19.86 3.03269 -1.06604 -2.58279 3.03595 -0.899584 -2.64534 3.07671 -0.472711 -2.75376 3.06727 -0.901534 -2.64467 -7.53974 -2.84758 4.64371 -7.47316 -8.61795 4.02879 -0.0 0.0 -0.0 11.1591 -11.6678 22.3756 26.8964 40.9925 51.0163 0.211603 -5.98414 0.0110602 11.2561 0.258585 -1.41231 1.13685 8.76665 11.0458 -0.0 0.0 -0.0 7.43396 -15.0241 -13.8431 -5.54677 2.62135 -55.4275 0.928437 24.6983 -0.203271 -0.268383 0.00953356 -0.0329493 4.90687 26.2885 -20.8209 0.0 0.0 0.0 31.6875 4.29229 -14.2231 -30.508 0.0242721 4.62689 -1.51858 -17.7979 0.248701 -4.29635 0.0 0.0 -0.0 0.0 -0.0 5.14047 1.26063 -9.83208 -44.8146 0.801128 -6.65873 41.956 -18.6258 5.17322 5.70916 -0.0 -0.0 0.0 0.0 0.0 
1007.6 686.121 -1471.71 -6.40074 79.5896 17.2471 2.62123 -0.707386 -2.62923 2.62491 -0.538709 -2.66888 2.64943 -0.091899 -2.72111 2.63948 -0.52034 -2.67252 -7.8204 -3.4538 4.55129 -7.75947 -9.66899 3.78313 -0.0 0.0 -0.0 11.795 -21.6422 23.3383 28.8255 39.0746 50.3 0.195393 -5.52867 0.0094344 14.2189 0.280141 -1.79009 1.23098 11.6489 12.7246 -0.0 0.0 -0.0 7.02359 -19.8149 -12.8071 -8.08001 5.06642 -55.7529 1.02541 26.9281 -0.245505 0.776806 -0.0267217 0.0956115 4.72339 25.9774 -19.7705 0.0 0.0 0.0 29.9885 4.15356 -15.2182 -31.0777 0.00128301 4.71129 2.52832 -22.4963 -0.42801 -2.69487 0.0 0.0 -0.0 0.0 -0.0 6.00426 -1.31509 -9.10048 -47.9488 1.04826 -7.07289 39.692 -17.8824 4.95468 7.5034 -0.0 -0.0 0.0 0.0 0.0 
